<?xml version="1.0" encoding="UTF-8"?>
<svg xmlns="http://www.w3.org/2000/svg" xmlns:xlink="http://www.w3.org/1999/xlink" width="300px" height="75px" viewBox="0 0 325 75" version="1.1">
<g id="surface1">
<path style="fill:none;stroke-width:4.6;stroke-linecap:round;stroke-linejoin:miter;stroke:rgb(65.098039%,87.45098%,97.647059%);stroke-opacity:1;stroke-miterlimit:4;" d="M 1.000467 80.000781 L 20.000347 80.000781 " transform="matrix(0.86082,0,0,0.862069,5.443466,2.068966)"/>
<path style="fill:none;stroke-width:4.6;stroke-linecap:round;stroke-linejoin:miter;stroke:rgb(57.647059%,85.490196%,97.254902%);stroke-opacity:1;stroke-miterlimit:4;" d="M 31.000039 80.000781 L 49.999918 80.000781 " transform="matrix(0.86082,0,0,0.862069,5.443466,2.068966)"/>
<path style="fill:none;stroke-width:4.6;stroke-linecap:round;stroke-linejoin:miter;stroke:rgb(49.411765%,83.137255%,96.862745%);stroke-opacity:1;stroke-miterlimit:4;" d="M 60.99961 80.000781 L 79.99949 80.000781 " transform="matrix(0.86082,0,0,0.862069,5.443466,2.068966)"/>
<path style="fill:none;stroke-width:4.6;stroke-linecap:round;stroke-linejoin:miter;stroke:rgb(41.960784%,81.176471%,96.470588%);stroke-opacity:1;stroke-miterlimit:4;" d="M 90.999181 80.000781 L 109.999061 80.000781 " transform="matrix(0.86082,0,0,0.862069,5.443466,2.068966)"/>
<path style="fill:none;stroke-width:4.6;stroke-linecap:round;stroke-linejoin:miter;stroke:rgb(32.156863%,79.607843%,96.078431%);stroke-opacity:1;stroke-miterlimit:4;" d="M 120.998753 80.000781 L 139.998633 80.000781 " transform="matrix(0.86082,0,0,0.862069,5.443466,2.068966)"/>
<path style="fill:none;stroke-width:4.6;stroke-linecap:round;stroke-linejoin:miter;stroke:rgb(22.352941%,77.647059%,95.686275%);stroke-opacity:1;stroke-miterlimit:4;" d="M 150.998324 80.000781 L 169.998204 80.000781 " transform="matrix(0.86082,0,0,0.862069,5.443466,2.068966)"/>
<path style="fill:none;stroke-width:4.6;stroke-linecap:round;stroke-linejoin:miter;stroke:rgb(12.54902%,76.078431%,95.294118%);stroke-opacity:1;stroke-miterlimit:4;" d="M 180.997896 80.000781 L 199.997775 80.000781 " transform="matrix(0.86082,0,0,0.862069,5.443466,2.068966)"/>
<path style="fill:none;stroke-width:4.6;stroke-linecap:round;stroke-linejoin:miter;stroke:rgb(1.568627%,74.509804%,94.901961%);stroke-opacity:1;stroke-miterlimit:4;" d="M 211.002005 80.000781 L 230.001885 80.000781 " transform="matrix(0.86082,0,0,0.862069,5.443466,2.068966)"/>
<path style="fill:none;stroke-width:4.6;stroke-linecap:round;stroke-linejoin:miter;stroke:rgb(0%,72.941176%,94.901961%);stroke-opacity:1;stroke-miterlimit:4;" d="M 241.001576 80.000781 L 260.001456 80.000781 " transform="matrix(0.86082,0,0,0.862069,5.443466,2.068966)"/>
<path style="fill:none;stroke-width:4.6;stroke-linecap:round;stroke-linejoin:miter;stroke:rgb(0%,71.372549%,94.509804%);stroke-opacity:1;stroke-miterlimit:4;" d="M 271.001147 80.000781 L 290.001027 80.000781 " transform="matrix(0.86082,0,0,0.862069,5.443466,2.068966)"/>
<path style="fill:none;stroke-width:4.6;stroke-linecap:round;stroke-linejoin:miter;stroke:rgb(0%,70.196078%,94.117647%);stroke-opacity:1;stroke-miterlimit:4;" d="M 301.000719 80.000781 L 320.000599 80.000781 " transform="matrix(0.86082,0,0,0.862069,5.443466,2.068966)"/>
<path style="fill:none;stroke-width:4.6;stroke-linecap:round;stroke-linejoin:miter;stroke:rgb(0%,68.627451%,93.72549%);stroke-opacity:1;stroke-miterlimit:4;" d="M 331.00029 80.000781 L 350.00017 80.000781 " transform="matrix(0.86082,0,0,0.862069,5.443466,2.068966)"/>
<path style=" stroke:none;fill-rule:nonzero;fill:rgb(89.803922%,9.803922%,21.568627%);fill-opacity:1;" d="M 147.652344 2.070312 L 147.652344 23.191406 C 144.417969 18.269531 138.898438 15.34375 133.015625 15.429688 C 127.679688 15.429688 123.203125 17.328125 119.414062 21.121094 C 115.804688 24.757812 113.816406 29.699219 113.90625 34.828125 C 113.90625 40.34375 115.800781 44.914062 119.503906 48.707031 C 123.117188 52.585938 127.679688 54.484375 132.84375 54.484375 C 135.859375 54.484375 138.613281 53.792969 141.109375 52.671875 C 143.519531 51.378906 145.757812 49.570312 147.738281 47.15625 L 147.738281 53.535156 L 152.472656 53.535156 L 152.472656 2.070312 Z M 22.832031 15 C 20.25 15 17.667969 15.691406 15.257812 17.15625 C 13.222656 18.542969 11.496094 20.332031 10.179688 22.414062 L 10.179688 15.949219 L 5.445312 15.949219 L 5.445312 53.535156 L 10.179688 53.535156 L 10.179688 37.585938 C 10.179688 32.84375 10.695312 29.398438 11.554688 27.070312 C 12.40625 24.886719 13.871094 23 15.773438 21.636719 C 17.667969 20.34375 19.734375 19.65625 21.886719 19.65625 C 23.777344 19.65625 25.414062 20.171875 26.878906 21.121094 C 28.234375 22.074219 29.257812 23.433594 29.804688 25 C 30.320312 26.722656 30.578125 29.742188 30.578125 34.308594 L 30.578125 53.535156 L 35.3125 53.535156 L 35.3125 38.878906 C 35.3125 33.449219 35.746094 29.570312 36.605469 27.242188 C 37.464844 25 38.929688 23.101562 40.824219 21.722656 C 42.71875 20.34375 44.78125 19.65625 47.105469 19.65625 C 49 19.65625 50.550781 20.085938 51.925781 21.035156 C 53.304688 21.898438 54.25 23.191406 54.855469 24.65625 C 55.457031 26.207031 55.714844 28.964844 55.714844 33.015625 L 55.714844 53.535156 L 60.535156 53.535156 L 60.535156 33.101562 C 60.535156 28.449219 60.105469 24.828125 59.160156 22.5 C 57.402344 17.871094 52.910156 14.859375 47.96875 15 C 45.300781 15 42.804688 15.863281 40.394531 17.328125 C 38.070312 18.878906 36.089844 21.121094 34.453125 24.050781 C 33.765625 21.898438 32.816406 20.171875 31.871094 18.964844 C 30.796875 17.714844 29.4375 16.738281 27.910156 16.121094 C 26.273438 15.34375 24.640625 15 22.746094 15 Z M 87.652344 15 C 82.054688 15 77.40625 17.070312 73.878906 21.292969 C 70.515625 24.992188 68.667969 29.824219 68.714844 34.828125 C 68.714844 40 70.433594 44.65625 74.050781 48.621094 C 77.492188 52.5 82.054688 54.484375 87.566406 54.484375 C 92.734375 54.632812 97.695312 52.449219 101.082031 48.535156 C 104.519531 44.808594 106.398438 39.902344 106.332031 34.828125 C 106.332031 29.65625 104.695312 25.085938 101.339844 21.207031 C 97.925781 17.144531 92.867188 14.832031 87.566406 14.914062 Z M 180.191406 15 C 174.164062 15 169.34375 17.328125 165.640625 22.070312 C 162.800781 25.777344 161.425781 30 161.425781 34.828125 C 161.425781 39.914062 163.144531 44.398438 166.503906 48.449219 C 169.964844 52.515625 175.117188 54.746094 180.449219 54.484375 C 185.234375 54.550781 189.863281 52.757812 193.359375 49.484375 C 195.082031 47.929688 196.632812 45.777344 197.835938 43.191406 L 193.964844 41.035156 C 192.5 43.535156 191.207031 45.34375 189.917969 46.378906 C 187.15625 48.734375 183.644531 50.019531 180.019531 50 C 176.230469 50 172.957031 48.621094 170.375 45.863281 C 167.707031 43.015625 166.332031 39.484375 166.246094 35.085938 L 199.128906 35.085938 C 199.128906 29.914062 197.75 25.601562 195.082031 22.15625 C 191.578125 17.484375 186.023438 14.8125 180.191406 15 Z M 220.476562 15 C 218.667969 15 216.945312 15.515625 215.3125 16.550781 C 213.390625 17.847656 211.75 19.519531 210.492188 21.464844 L 210.492188 15.863281 L 205.496094 15.863281 L 205.496094 53.449219 L 210.492188 53.449219 L 210.492188 40.863281 C 210.492188 34.308594 210.835938 29.914062 211.4375 27.84375 C 212.296875 25 213.417969 22.929688 214.882812 21.636719 C 216.175781 20.386719 217.902344 19.675781 219.703125 19.65625 C 220.304688 19.65625 221.164062 19.828125 222.285156 20.34375 L 224.867188 16.207031 C 223.230469 15.34375 221.851562 14.914062 220.476562 14.914062 Z M 248.882812 15 C 246.128906 15 243.632812 15.601562 241.308594 16.898438 C 238.820312 18.339844 236.675781 20.3125 235.023438 22.671875 L 235.023438 15.863281 L 230.289062 15.863281 L 230.289062 53.449219 L 235.023438 53.449219 L 235.023438 39.65625 C 235.023438 34.742188 235.28125 31.292969 235.710938 29.398438 C 236.402344 26.550781 237.949219 24.222656 240.1875 22.242188 C 242.511719 20.257812 245.09375 19.308594 247.9375 19.308594 C 250.519531 19.308594 252.5 20 253.960938 21.207031 C 255.644531 22.644531 256.773438 24.628906 257.148438 26.808594 C 257.578125 28.277344 257.75 31.121094 257.75 35.515625 L 257.75 53.449219 L 262.484375 53.449219 L 262.484375 34.222656 C 262.484375 29.050781 261.96875 25.257812 260.933594 22.84375 C 259.902344 20.429688 258.351562 18.535156 256.199219 17.070312 C 254.035156 15.628906 251.484375 14.878906 248.882812 14.914062 Z M 289.339844 15 C 284.261719 15 279.871094 16.898438 276.257812 20.691406 C 272.652344 24.398438 270.671875 29.394531 270.75 34.570312 C 270.640625 39.785156 272.589844 44.832031 276.171875 48.621094 C 279.777344 52.589844 284.984375 54.710938 290.335938 54.394531 C 295.683594 54.074219 300.605469 51.351562 303.71875 46.984375 L 303.71875 53.535156 L 308.367188 53.535156 L 308.367188 15.863281 L 303.804688 15.863281 L 303.804688 22.757812 C 302.195312 20.285156 300.007812 18.242188 297.433594 16.808594 C 294.988281 15.550781 292.265625 14.925781 289.515625 15 Z M 180.191406 19.570312 C 182.429688 19.570312 184.492188 20.085938 186.386719 21.035156 C 188.453125 21.898438 190.003906 23.191406 191.207031 24.742188 C 192.328125 26.292969 193.273438 28.277344 193.964844 30.863281 L 166.675781 30.863281 C 167.707031 27.414062 169.085938 24.828125 170.980469 23.101562 C 173.5625 20.777344 176.660156 19.65625 180.191406 19.65625 Z M 289.773438 19.570312 C 293.816406 19.570312 297.175781 21.035156 300.015625 23.964844 C 302.683594 26.898438 304.0625 30.515625 304.0625 34.914062 C 304.0625 37.757812 303.460938 40.34375 302.339844 42.585938 C 299.820312 47.132812 295.050781 49.96875 289.859375 50 C 287.277344 50 284.867188 49.308594 282.628906 48.015625 C 275.800781 43.476562 273.527344 34.488281 277.375 27.242188 C 279.761719 22.585938 284.546875 19.660156 289.773438 19.65625 Z M 87.480469 19.742188 C 91.351562 19.742188 94.710938 21.207031 97.464844 24.136719 C 102.046875 29.148438 102.976562 36.503906 99.789062 42.5 C 97.445312 47.089844 92.710938 49.957031 87.566406 49.914062 C 82.417969 49.957031 77.6875 47.089844 75.34375 42.5 C 74.09375 40.167969 73.445312 37.558594 73.449219 34.914062 C 73.449219 30.691406 74.824219 27.15625 77.582031 24.136719 C 80.335938 21.207031 83.605469 19.742188 87.566406 19.742188 Z M 133.273438 20 C 137.230469 20 141.019531 21.601562 143.777344 24.445312 C 146.535156 27.285156 148.027344 31.125 147.910156 35.085938 C 147.949219 37.765625 147.296875 40.40625 146.015625 42.757812 C 143.285156 47.25 138.441406 50.019531 133.1875 50.085938 C 127.914062 50.027344 123.078125 47.128906 120.535156 42.5 C 117.929688 37.839844 117.929688 32.160156 120.535156 27.5 C 123.074219 22.839844 127.972656 19.957031 133.273438 20 Z M 315.339844 18.878906 L 316.027344 18.878906 C 316.371094 18.878906 316.628906 18.878906 316.714844 18.707031 C 316.886719 18.707031 316.972656 18.535156 316.972656 18.363281 L 316.800781 18.101562 C 316.800781 17.929688 316.800781 17.929688 316.628906 17.84375 L 315.339844 17.84375 Z M 314.820312 20.863281 L 314.820312 17.414062 L 316.886719 17.414062 C 317.144531 17.5 317.320312 17.671875 317.40625 17.84375 L 317.578125 18.277344 C 317.578125 18.621094 317.40625 18.792969 317.320312 18.964844 C 317.066406 19.15625 316.769531 19.277344 316.457031 19.308594 L 316.800781 19.484375 L 317.320312 20.171875 L 317.75 20.863281 L 317.058594 20.863281 L 316.800781 20.257812 L 316.199219 19.398438 L 315.425781 19.398438 L 315.425781 20.863281 Z M 316.199219 16.292969 C 315.769531 16.292969 315.339844 16.378906 314.90625 16.722656 C 314.476562 16.898438 314.132812 17.242188 313.960938 17.671875 C 313.429688 18.515625 313.429688 19.589844 313.960938 20.429688 C 314.132812 20.863281 314.476562 21.207031 314.90625 21.378906 C 315.339844 21.722656 315.769531 21.808594 316.199219 21.808594 C 316.714844 21.808594 317.144531 21.722656 317.578125 21.378906 C 318.007812 21.207031 318.4375 20.863281 318.609375 20.429688 C 318.78125 20 318.953125 19.570312 318.953125 19.050781 C 318.953125 18.621094 318.78125 18.191406 318.609375 17.671875 C 318.359375 17.265625 318 16.9375 317.578125 16.722656 C 317.144531 16.378906 316.714844 16.292969 316.199219 16.292969 Z M 316.199219 15.863281 C 316.800781 15.863281 317.320312 15.949219 317.835938 16.207031 C 318.351562 16.464844 318.695312 16.898438 319.039062 17.414062 C 319.382812 17.929688 319.46875 18.449219 319.46875 19.136719 C 319.46875 19.65625 319.382812 20.171875 319.039062 20.691406 C 318.78125 21.207031 318.351562 21.550781 317.835938 21.898438 C 317.332031 22.175781 316.773438 22.324219 316.199219 22.328125 C 315.683594 22.328125 315.167969 22.15625 314.648438 21.898438 C 314.132812 21.636719 313.789062 21.207031 313.445312 20.691406 C 313.1875 20.171875 313.015625 19.65625 313.015625 19.050781 C 313.015625 18.449219 313.1875 17.929688 313.445312 17.414062 C 313.789062 16.898438 314.132812 16.550781 314.648438 16.207031 C 315.167969 15.949219 315.769531 15.863281 316.199219 15.863281 Z M 316.199219 15.863281 "/>
</g>
</svg>
