<?xml version="1.0" encoding="UTF-8"?>
<svg xmlns="http://www.w3.org/2000/svg" xmlns:xlink="http://www.w3.org/1999/xlink" width="300px" height="75px" viewBox="0 0 127 75" version="1.1">
<g id="surface1">
<path style=" stroke:none;fill-rule:nonzero;fill:rgb(13.72549%,9.411765%,7.843137%);fill-opacity:1;" d="M 29.078125 29.609375 L 29.078125 45.390625 L 33.140625 45.390625 L 33.140625 29.609375 Z M 29.078125 29.609375 "/>
<path style=" stroke:none;fill-rule:nonzero;fill:rgb(13.72549%,9.411765%,7.843137%);fill-opacity:1;" d="M 68.289062 37.554688 C 68.289062 40.128906 67.566406 42.144531 66.230469 43.601562 C 64.890625 45.054688 62.886719 45.785156 60.4375 45.785156 C 57.984375 45.785156 56.035156 45.054688 54.644531 43.601562 C 53.25 42.144531 52.582031 40.128906 52.582031 37.554688 C 52.582031 34.980469 53.304688 32.910156 54.644531 31.457031 C 55.980469 30 57.984375 29.273438 60.492188 29.273438 C 63 29.273438 64.949219 30 66.339844 31.457031 C 67.621094 32.855469 68.289062 34.925781 68.289062 37.554688 M 64.445312 37.554688 C 64.503906 36.15625 64.167969 34.8125 63.386719 33.636719 C 62.71875 32.6875 61.605469 32.125 60.4375 32.183594 C 59.265625 32.125 58.152344 32.6875 57.484375 33.636719 C 56.703125 34.8125 56.371094 36.15625 56.425781 37.554688 C 56.371094 38.957031 56.703125 40.296875 57.484375 41.472656 C 58.765625 43.097656 61.105469 43.433594 62.777344 42.144531 C 63 41.976562 63.222656 41.753906 63.445312 41.472656 C 64.167969 40.242188 64.503906 38.898438 64.445312 37.554688 "/>
<path style=" stroke:none;fill-rule:nonzero;fill:rgb(84.313725%,7.843137%,5.490196%);fill-opacity:1;" d="M 80.710938 29.609375 L 84.722656 29.609375 L 79.320312 45.390625 L 74.640625 45.390625 L 69.292969 29.609375 L 73.304688 29.609375 L 76.980469 40.96875 Z M 80.710938 29.609375 "/>
<path style=" stroke:none;fill-rule:nonzero;fill:rgb(13.72549%,9.411765%,7.843137%);fill-opacity:1;" d="M 14.648438 45.167969 L 14.648438 42.035156 C 16.152344 42.539062 17.714844 42.816406 19.328125 42.816406 C 21.222656 42.816406 22.167969 42.3125 22.167969 41.304688 C 22.167969 40.96875 22.003906 40.578125 21.78125 40.355469 C 21.109375 39.90625 20.386719 39.515625 19.605469 39.234375 C 17.546875 38.394531 16.210938 37.613281 15.539062 36.996094 C 13.871094 35.207031 13.980469 32.40625 15.761719 30.726562 C 15.875 30.617188 16.042969 30.503906 16.210938 30.390625 C 17.601562 29.496094 19.21875 29.105469 20.832031 29.160156 C 22.390625 29.214844 23.953125 29.382812 25.511719 29.71875 L 25.511719 32.519531 C 24.117188 32.125 22.726562 31.902344 21.277344 31.847656 C 19.496094 31.847656 18.605469 32.351562 18.605469 33.300781 C 18.605469 33.695312 18.828125 34.03125 19.160156 34.199219 C 19.941406 34.644531 20.777344 35.039062 21.613281 35.429688 C 23.003906 35.988281 24.339844 36.714844 25.511719 37.667969 C 26.292969 38.453125 26.679688 39.515625 26.679688 40.578125 C 26.738281 42.203125 25.84375 43.710938 24.453125 44.496094 C 23.003906 45.28125 21.390625 45.671875 19.773438 45.617188 C 18.101562 45.671875 16.375 45.503906 14.761719 45.113281 Z M 14.648438 45.167969 "/>
<path style=" stroke:none;fill-rule:nonzero;fill:rgb(13.72549%,9.411765%,7.843137%);fill-opacity:1;" d="M 36.152344 45.390625 L 36.152344 29.609375 L 41.164062 29.609375 L 46.734375 40.128906 L 46.734375 29.609375 L 49.851562 29.609375 L 49.851562 45.390625 L 45.175781 45.390625 L 39.269531 34.644531 L 39.269531 45.390625 Z M 36.152344 45.390625 "/>
<path style=" stroke:none;fill-rule:nonzero;fill:rgb(84.313725%,7.843137%,5.490196%);fill-opacity:1;" d="M 87.394531 45.390625 L 83.386719 45.390625 L 88.734375 29.609375 L 93.410156 29.609375 L 98.816406 45.390625 L 94.75 45.390625 L 91.074219 34.03125 Z M 87.394531 45.390625 "/>
<path style=" stroke:none;fill-rule:nonzero;fill:rgb(84.313725%,7.843137%,5.490196%);fill-opacity:1;" d="M 112.515625 42.3125 C 111.292969 42.648438 110.011719 42.816406 108.730469 42.875 C 107.28125 42.929688 105.890625 42.425781 104.832031 41.417969 C 103.828125 40.355469 103.269531 38.957031 103.382812 37.5 C 103.328125 36.042969 103.828125 34.644531 104.832031 33.582031 C 105.832031 32.574219 107.226562 32.015625 108.675781 32.070312 C 110.011719 32.125 111.292969 32.351562 112.574219 32.796875 L 112.574219 29.945312 C 112.070312 29.777344 111.570312 29.609375 111.011719 29.550781 C 110.179688 29.382812 109.285156 29.273438 108.453125 29.328125 C 105.722656 29.328125 103.605469 30.113281 101.988281 31.625 C 100.375 33.132812 99.59375 35.148438 99.59375 37.722656 C 99.59375 40.296875 100.375 42.257812 101.988281 43.710938 C 103.605469 45.167969 105.777344 45.894531 108.5625 45.894531 C 109.398438 45.894531 110.179688 45.839844 110.957031 45.671875 C 111.570312 45.558594 112.128906 45.449219 112.683594 45.335938 L 112.683594 42.425781 L 112.515625 42.425781 Z M 112.515625 42.3125 "/>
</g>
</svg>
